<svg xmlns="http://www.w3.org/2000/svg" viewBox="0 0 8.92 8.97">
  <defs>
    <style>
      .cls-1 {
        fill: #c9b29b;
      }
    </style>
  </defs>
  <g id="レイヤー_2" data-name="レイヤー 2">
    <g id="レイヤー_1-2" data-name="レイヤー 1">
      <path class="cls-1" d="M6.06,9c-.14,0-.29,0-.29-.19s.19-.19.48-.19a.53.53,0,0,0,.49-.53,6.42,6.42,0,0,0-.44-1.4C6,6,6,5.9,5.6,5.9H3c-.45,0-.49.12-.69.66a10.18,10.18,0,0,0-.43,1.56c0,.47.39.47.67.47s.28,0,.28.19S2.65,9,2.55,9H.25C.16,9,0,9,0,8.79s.13-.2.41-.2a1,1,0,0,0,.91-.48,38,38,0,0,0,1.43-4C2.9,3.59,3.67,1.24,3.83.7S4,0,4.87,0a.27.27,0,0,1,.26.19,7.44,7.44,0,0,1,.4,1.08c.84,2.6.91,2.89,1.67,5.11.68,2,.76,2.21,1.45,2.21.15,0,.27.07.27.2S8.73,9,8.65,9ZM5.49,5.5c.13,0,.3-.06.3-.19S4.65,1.73,4.44,1.08c-.07-.2-.1-.31-.18-.31S4.17.8,4,1.2c-.33,1-1.27,4-1.27,4.13s.18.17.34.17Z"/>
    </g>
  </g>
</svg>
