<svg xmlns="http://www.w3.org/2000/svg" viewBox="0 0 7.88 10.49">
  <defs>
    <style>
      .cls-1 {
        fill: #ad8e6d;
      }
    </style>
  </defs>
  <g id="レイヤー_2" data-name="レイヤー 2">
    <g id="レイヤー_1-2" data-name="レイヤー 1">
      <path class="cls-1" d="M7.83,4.62a4.63,4.63,0,0,1-1.7,3.87c-.31.22-.35.24-.35.36a1.63,1.63,0,0,0,1.32,1,.93.93,0,0,0,.34-.06,1.2,1.2,0,0,1,.3-.15.15.15,0,0,1,.14.14,1.65,1.65,0,0,1-1.39.68,1.38,1.38,0,0,1-1.37-1C5,9.26,5,9.12,4.76,9.12l-.38,0-.46,0C1.62,9.2,0,7.32,0,4.61S1.57,0,3.92,0,7.83,1.92,7.83,4.62Zm-6.69,0c0,1.91.65,3,.77,3S2,7.6,2,7.44A1.23,1.23,0,0,1,3.26,6.38,2.29,2.29,0,0,1,5.15,7.7c.22.41.26.46.34.46s1.2-1,1.2-3.57C6.69,3,6.21.4,3.92.4,1.17.4,1.14,4.08,1.14,4.64ZM4.74,8.5c0-.19-.41-1.74-1.48-1.74a.87.87,0,0,0-.87,1c0,.82.94,1.09,1.53,1.09S4.74,8.76,4.74,8.5Z"/>
    </g>
  </g>
</svg>
