<svg xmlns="http://www.w3.org/2000/svg" width="207.844" height="21.282" viewBox="0 0 207.844 21.282">
  <defs>
    <style>
      .cls-1 {
        fill: #222;
        fill-rule: evenodd;
      }
    </style>
  </defs>
  <path id="TENKUE_HOTEL" data-name="TENKUE HOTEL" class="cls-1" d="M62.333,165.027v-2.673h-11.5v2.673h4.333V181.2h2.844V165.027h4.321Zm15.379-2.673h-10.4V181.2h10.4v-2.673H70.156v-6.3h7.336v-2.673H70.156v-4.529h7.556v-2.673ZM86.656,181.2v-13.2L100.4,182.349V162.354H97.557v13.1l-13.745-14.38V181.2h2.844Zm23.5-18.847h-2.844V181.2h2.844v-7.8l0.586-.586,6.787,8.386h3.808l-8.569-10.315,8.521-8.532h-3.8l-7.336,7.519v-7.519Zm16.656,0v12.133a6.835,6.835,0,0,0,6.97,7.056,6.872,6.872,0,0,0,5.127-2.148,6.791,6.791,0,0,0,1.855-4.908V162.354H137.92v11.352a6.149,6.149,0,0,1-.793,3.552,4.245,4.245,0,0,1-6.678,0,6.246,6.246,0,0,1-.793-3.552V162.354h-2.844Zm30.9,0h-10.4V181.2h10.4v-2.673h-7.556v-6.3h7.336v-2.673h-7.336v-4.529h7.556v-2.673Zm19.444,0h-2.844V181.2h2.844v-8.8h8.13v8.8h2.844V162.354h-2.844v7.373h-8.13v-7.373Zm19.914,16.662a9.96,9.96,0,0,0,13.6-.317,9.271,9.271,0,0,0,2.905-6.9,9.856,9.856,0,0,0-9.8-9.8,9.6,9.6,0,0,0-6.983,2.856,9.731,9.731,0,0,0,.281,14.16h0Zm1.7-12.292a7.028,7.028,0,0,1,9.924,0,7.316,7.316,0,0,1-.024,10.107,7.075,7.075,0,0,1-9.9-10.107h0Zm30.066-1.7v-2.673h-11.5v2.673h4.334V181.2h2.844V165.027h4.321Zm15.379-2.673h-10.4V181.2h10.4v-2.673h-7.556v-6.3h7.336v-2.673h-7.336v-4.529h7.556v-2.673Zm6.1,0V181.2H258.7v-2.673h-5.542V162.354h-2.844Z" transform="translate(-50.844 -161.062)"/>
</svg>
